<?xml version="1.0" standalone="no"?>
<!DOCTYPE svg PUBLIC "-//W3C//DTD SVG 20010904//EN"
 "http://www.w3.org/TR/2001/REC-SVG-20010904/DTD/svg10.dtd">
<svg version="1.0" xmlns="http://www.w3.org/2000/svg"
 width="512.000000pt" height="512.000000pt" viewBox="0 0 512.000000 512.000000"
 preserveAspectRatio="xMidYMid meet">

<g transform="translate(0.000000,512.000000) scale(0.100000,-0.100000)"
fill="#000000" stroke="none">
<path d="M2330 4984 c-332 -40 -572 -109 -845 -244 -490 -242 -863 -615 -1105
-1105 -115 -233 -184 -448 -227 -710 -26 -157 -26 -574 0 -728 45 -267 110
-472 222 -702 120 -246 261 -444 457 -644 197 -199 408 -351 653 -471 234
-115 451 -183 720 -227 156 -25 543 -25 705 0 412 65 782 219 1110 463 136
101 385 350 484 484 246 331 397 693 463 1110 28 178 25 558 -6 739 -73 426
-247 815 -514 1146 -78 97 -266 284 -362 361 -262 209 -602 380 -915 459 -213
54 -320 67 -570 70 -129 2 -251 1 -270 -1z m239 -273 c-13 -16 -41 -50 -63
-75 l-38 -46 58 -72 c94 -115 91 -108 51 -108 -31 0 -40 8 -97 80 -35 44 -65
80 -67 80 -2 0 0 -36 3 -80 l7 -80 -32 0 -31 0 0 160 0 160 25 0 c23 0 24 -4
27 -64 l3 -65 58 70 c49 58 63 69 89 69 l31 0 -24 -29z m411 -21 c32 -22 37
-46 11 -55 -13 -4 -27 1 -40 14 -12 12 -27 21 -35 21 -17 0 -46 -27 -46 -42 0
-6 27 -36 60 -66 47 -43 60 -62 60 -84 0 -70 -57 -115 -126 -102 -62 11 -110
82 -68 98 10 4 23 -3 35 -18 11 -14 28 -28 39 -31 28 -9 60 12 60 40 0 25 -12
40 -65 81 -114 86 -2 227 115 144z m-750 17 c0 -2 11 -66 25 -143 14 -76 25
-147 25 -156 0 -15 -36 -36 -45 -26 -8 8 -56 302 -51 314 4 12 46 21 46 11z
m-111 -183 c23 -86 40 -158 38 -160 -2 -2 -68 32 -146 76 -120 66 -142 75
-137 57 24 -84 48 -188 45 -191 -2 -2 -12 -6 -23 -8 -16 -3 -24 17 -62 156
-24 88 -42 161 -41 162 3 3 266 -142 282 -156 7 -6 0 37 -17 96 -15 58 -26
110 -23 115 4 5 14 9 24 9 15 0 26 -28 60 -156z m1080 120 c53 -14 97 -27 98
-28 1 -1 0 -11 -3 -23 -5 -18 -10 -20 -37 -12 -18 5 -37 9 -43 9 -6 0 -26 -55
-44 -122 -18 -68 -35 -128 -39 -134 -10 -19 -53 2 -47 23 10 34 66 243 66 248
0 2 -18 9 -40 15 -37 10 -50 27 -33 43 10 10 17 9 122 -19z m-1519 -99 c0 -3
-10 -44 -21 -91 -12 -46 -20 -86 -18 -88 2 -1 48 -22 102 -46 53 -24 97 -46
97 -49 0 -3 -12 -12 -27 -18 -24 -11 -36 -8 -120 32 -51 24 -93 42 -93 39 0
-2 16 -36 35 -74 34 -67 34 -70 16 -80 -11 -5 -22 -10 -25 -10 -3 0 -38 64
-77 142 -66 132 -70 143 -53 155 10 7 21 13 24 13 3 0 19 -26 34 -57 l29 -58
21 83 c14 53 28 89 41 98 19 14 35 18 35 9z m1785 -363 c-1 -1 -14 3 -29 9
-23 11 -26 18 -26 59 l0 47 -57 26 -58 25 -31 -30 c-25 -23 -37 -28 -58 -22
-15 3 -26 10 -24 14 2 4 64 60 138 124 l135 118 6 -184 c4 -101 5 -184 4 -186z
m323 175 c14 -11 15 -17 3 -36 -7 -11 -15 -10 -46 9 -20 12 -37 21 -39 19 -2
-2 -34 -53 -71 -114 -38 -60 -70 -112 -72 -114 -2 -2 -14 1 -27 8 l-24 13 75
120 c72 113 74 120 57 133 -11 8 -21 15 -24 15 -3 0 -11 4 -18 9 -11 7 -12 12
-1 29 12 19 15 19 93 -30 45 -28 87 -55 94 -61z m-2390 21 c19 -19 15 -24 -38
-58 -27 -18 -50 -35 -50 -39 0 -3 10 -19 23 -35 l23 -29 50 36 c39 28 53 34
62 25 20 -20 13 -32 -38 -67 l-49 -33 30 -44 30 -44 49 36 c41 30 53 34 65 24
8 -7 15 -16 15 -20 0 -4 -33 -30 -73 -58 l-74 -51 -91 130 c-51 71 -92 133
-92 137 1 7 130 100 141 101 3 1 10 -4 17 -11z m2502 -109 c0 -6 -44 -66 -97
-134 -94 -121 -97 -123 -118 -107 -22 16 -21 17 78 144 87 111 102 126 118
117 11 -5 19 -14 19 -20z m-1280 -339 c0 -362 -4 -340 58 -324 22 6 22 8 22
180 l0 174 65 0 65 0 0 -175 0 -175 33 0 c18 0 53 -10 77 -22 38 -20 45 -28
48 -57 3 -29 -3 -40 -51 -87 -129 -124 -438 -224 -661 -212 -104 5 -149 28
-154 77 -4 43 31 89 108 138 l60 38 0 238 0 237 65 0 65 0 0 -209 0 -210 38
13 37 13 3 347 2 346 60 0 60 0 0 -330z m-1449 246 l-30 -31 94 -101 c94 -101
94 -102 74 -120 -20 -18 -22 -17 -117 85 l-97 103 -29 -31 c-27 -29 -31 -30
-47 -15 -17 15 -13 21 64 94 76 73 83 77 100 62 17 -15 16 -17 -12 -46z m2877
-21 c33 -28 54 -75 42 -95 -11 -19 -45 -7 -48 17 -5 32 -39 60 -60 47 -24 -15
-26 -47 -8 -101 24 -70 21 -97 -15 -127 -53 -45 -129 -27 -165 39 -22 42 -13
88 18 83 15 -2 22 -11 22 -30 2 -31 32 -68 56 -68 40 0 50 45 25 115 -21 59
-18 83 14 116 37 37 79 38 119 4z m-2974 -236 c64 -56 115 -106 113 -112 -2
-6 -10 -15 -19 -20 -12 -8 -40 11 -132 92 -64 57 -116 106 -116 110 0 9 22 31
30 31 4 0 59 -46 124 -101z m3176 14 c65 -79 69 -88 55 -102 -15 -15 -19 -13
-45 18 l-28 33 -107 -87 c-106 -88 -107 -88 -126 -68 -20 20 -20 20 90 108
l109 89 -25 33 c-21 27 -23 36 -13 48 7 8 14 15 16 15 1 0 35 -39 74 -87z
m-3231 -253 c6 0 24 21 41 46 31 43 33 45 51 28 18 -16 18 -18 -18 -68 -68
-95 -54 -95 -178 -4 -60 44 -119 86 -129 94 -17 12 -18 16 -7 38 l14 24 108
-79 c60 -43 113 -79 118 -79z m3235 -33 c-128 -83 -138 -88 -151 -71 -7 10
-12 22 -11 26 2 4 62 45 133 92 l130 84 18 -21 c18 -20 17 -21 -119 -110z
m-3427 -12 c50 -21 72 -42 94 -90 24 -51 23 -89 0 -141 -51 -113 -201 -139
-280 -49 -44 50 -57 102 -41 161 29 103 134 158 227 119z m3632 -12 c11 -21 8
-24 -45 -51 -32 -16 -53 -31 -48 -34 5 -3 43 -13 84 -22 65 -14 77 -20 92 -46
9 -17 16 -30 15 -30 -1 0 -36 9 -77 20 -117 31 -110 34 -157 -77 -23 -54 -40
-100 -38 -102 2 -2 79 -11 170 -21 91 -10 168 -20 170 -22 7 -6 -240 -248
-252 -248 -6 0 -13 10 -17 23 -5 17 2 29 27 52 l34 30 -21 63 -20 62 -43 0
c-38 0 -45 3 -54 28 -6 15 -17 41 -24 57 -11 27 -9 37 20 102 57 123 58 121
-21 79 -64 -34 -70 -35 -82 -19 -7 9 -11 21 -9 26 2 7 280 158 283 154 1 -1 6
-12 13 -24z m-1629 -618 l0 -334 -47 -21 c-26 -11 -55 -28 -65 -37 -17 -15
-18 -2 -18 325 l0 342 63 29 c34 16 63 30 65 30 1 1 2 -150 2 -334z m-2191
239 c23 -28 25 -68 6 -116 -5 -14 6 -20 65 -38 65 -19 70 -23 64 -43 -3 -12
-7 -23 -8 -24 -1 -1 -55 14 -121 33 -66 19 -136 39 -157 44 -36 10 -36 10 -26
48 19 70 39 109 61 121 35 17 89 5 116 -25z m1981 -345 c0 -333 -1 -352 -20
-379 -11 -15 -25 -40 -31 -56 l-12 -29 -8 29 c-4 15 -19 45 -34 65 l-25 38 6
330 7 331 41 10 c84 20 76 55 76 -339z m-200 4 c0 -293 -1 -305 -18 -290 -10
9 -39 26 -65 37 l-47 21 0 264 0 264 33 4 c17 2 47 5 65 5 l32 2 0 -307z m542
273 c-7 -57 16 -102 92 -185 40 -44 81 -97 92 -118 25 -51 24 -126 -4 -180
l-22 -42 -37 15 c-26 11 -61 15 -124 12 l-86 -3 33 39 c47 55 49 78 14 176
-43 123 -39 200 15 282 14 21 27 38 28 38 2 0 1 -15 -1 -34z m-776 -39 c35
-69 35 -147 0 -240 -35 -91 -34 -125 7 -179 l33 -43 -83 4 c-60 2 -94 -1 -124
-13 l-40 -16 -19 42 c-24 52 -25 126 -5 175 9 20 47 72 86 114 84 93 99 121
99 177 0 53 12 48 46 -21z m1145 -247 c65 -33 138 -77 161 -98 42 -38 77 -100
78 -138 0 -26 -30 -34 -134 -34 -75 -1 -135 -17 -166 -45 -17 -15 -20 -14 -45
9 -15 14 -35 28 -45 31 -17 5 -16 10 13 57 27 43 32 61 32 113 0 52 -6 74 -40
142 l-40 81 33 -29 c18 -16 87 -56 153 -89z m-1414 38 c-28 -54 -32 -71 -32
-143 0 -74 3 -87 27 -121 l27 -38 -27 -16 c-15 -9 -33 -24 -40 -33 -12 -14
-19 -12 -69 14 -47 25 -66 29 -133 29 -43 0 -92 3 -109 6 -30 6 -32 9 -25 38
20 95 74 147 244 231 63 32 126 66 139 76 13 11 25 19 27 19 1 0 -12 -28 -29
-62z m1879 -212 c31 -68 41 -161 24 -221 -17 -60 -86 -137 -153 -170 -73 -35
-175 -55 -292 -55 l-100 0 -29 -60 c-32 -68 -88 -123 -154 -152 -65 -29 -194
-22 -274 14 -32 15 -58 22 -58 17 0 -6 12 -35 27 -65 35 -73 116 -146 191
-174 80 -30 212 -37 331 -16 52 9 96 14 98 12 8 -7 -127 -72 -186 -90 -31 -9
-90 -16 -136 -16 -135 0 -248 44 -334 130 -109 109 -151 269 -99 382 44 96
118 148 219 156 69 5 123 -17 150 -62 25 -41 24 -62 -6 -91 -18 -18 -35 -25
-65 -25 -37 0 -40 2 -40 27 0 38 -27 63 -67 63 -76 0 -97 -85 -34 -142 72 -65
210 -42 275 45 31 42 35 160 7 214 -47 93 -168 146 -285 126 -33 -6 -70 -14
-81 -18 l-20 -7 20 17 c11 10 49 31 84 48 134 64 273 43 377 -55 l51 -48 67
31 c57 27 88 34 200 44 202 19 232 44 224 187 l-5 78 25 -36 c13 -20 35 -59
48 -88z m-2423 47 c-7 -85 11 -134 58 -159 20 -10 84 -21 168 -29 132 -13 197
-31 245 -67 17 -13 22 -11 58 28 106 116 286 135 435 47 60 -35 60 -42 0 -26
-115 31 -254 -11 -311 -94 -58 -83 -43 -224 28 -278 41 -31 121 -50 171 -41
116 22 146 176 34 176 -42 0 -69 -26 -69 -67 0 -20 -5 -23 -38 -23 -53 0 -82
23 -82 64 0 101 139 149 258 90 59 -29 96 -69 125 -133 29 -65 22 -187 -16
-263 -119 -242 -420 -318 -690 -176 -31 17 -56 33 -54 35 3 2 44 -3 92 -12
291 -50 475 29 555 239 l9 24 -62 -25 c-82 -34 -195 -42 -266 -18 -64 21 -128
82 -165 158 l-28 57 -95 0 c-219 0 -376 68 -434 188 -29 60 -31 157 -4 228 17
45 72 144 80 144 2 0 1 -30 -2 -67z m2425 -455 c-34 -62 -155 -182 -215 -212
-77 -39 -156 -56 -254 -56 l-88 0 34 50 c19 28 37 65 40 83 l6 32 102 1 c127
2 232 33 327 98 36 25 66 45 68 45 1 1 -8 -18 -20 -41z m-2465 8 c95 -71 216
-110 349 -110 97 -1 98 -1 103 -28 4 -14 22 -52 41 -83 l34 -58 -107 6 c-128
6 -194 25 -278 82 -57 40 -130 119 -168 184 -22 37 -16 39 26 7z m635 -321
c71 -29 181 -34 245 -11 20 8 37 12 37 10 0 -13 -76 -71 -125 -95 -101 -48
-245 -49 -297 -2 -41 37 -4 123 52 123 15 0 54 -11 88 -25z m1307 0 c30 -29
31 -54 4 -88 -64 -82 -295 -49 -398 57 l-34 35 48 -15 c74 -22 170 -18 235 10
74 32 115 32 145 1z m-775 -243 c-38 -39 -40 -83 -5 -117 51 -52 135 -15 135
59 0 26 -7 40 -30 59 -30 25 -30 27 -30 123 l0 97 38 -59 c71 -109 171 -184
300 -224 l53 -16 -83 -42 c-146 -72 -249 -186 -298 -330 l-23 -67 -38 73 c-78
147 -195 272 -313 333 l-63 33 77 31 c42 17 100 46 129 64 59 38 136 120 160
170 l16 34 3 -95 c3 -95 2 -96 -28 -126z m-337 -707 c13 -6 17 -19 17 -61 l0
-55 -30 16 c-33 17 -122 20 -151 5 -24 -13 -25 -52 -1 -73 9 -8 42 -26 72 -40
76 -33 118 -71 130 -117 19 -72 -10 -138 -75 -170 -53 -26 -161 -31 -232 -11
l-43 12 0 58 0 58 47 -23 c50 -26 129 -32 164 -14 26 14 24 52 -3 76 -13 11
-53 35 -90 53 -77 37 -109 74 -115 134 -7 74 44 136 130 158 35 9 151 5 180
-6z m1060 0 c13 -6 17 -19 17 -61 l0 -53 -35 15 c-52 21 -138 19 -159 -5 -31
-34 -12 -57 86 -107 111 -58 131 -84 125 -167 -6 -98 -67 -140 -202 -140 -38
0 -87 5 -107 12 l-38 13 0 58 0 59 43 -24 c54 -31 134 -34 168 -6 38 31 15 64
-75 107 -41 20 -87 49 -102 66 -26 26 -29 37 -29 93 0 57 3 67 30 95 40 42
104 61 190 56 39 -3 78 -7 88 -11z m-573 -45 l0 -50 -75 0 -75 0 0 -210 0
-210 -60 0 -60 0 0 210 0 210 -75 0 -75 0 0 50 0 50 210 0 210 0 0 -50z m170
-210 l0 -260 -55 0 -55 0 0 260 0 260 55 0 55 0 0 -260z"/>
<path d="M3376 4420 c-22 -22 -38 -41 -35 -43 10 -7 62 -28 64 -25 3 4 15 108
12 108 -1 -1 -20 -18 -41 -40z"/>
<path d="M2650 3581 c-25 -7 -25 -8 -28 -139 -1 -73 -1 -132 1 -132 3 0 21 7
41 15 l36 15 0 125 c0 133 1 130 -50 116z"/>
<path d="M2830 3501 c0 -50 4 -91 9 -91 16 0 91 89 91 108 0 24 -37 59 -72 67
l-28 7 0 -91z"/>
<path d="M2448 3528 l-28 -10 0 -124 0 -124 24 0 c55 0 56 2 56 141 0 138 1
137 -52 117z"/>
<path d="M2248 3425 c-44 -30 -72 -78 -64 -110 4 -16 20 -29 51 -41 25 -9 48
-15 51 -12 2 3 3 47 2 97 l-3 91 -37 -25z"/>
<path d="M695 3568 c-63 -50 -65 -131 -5 -182 64 -54 148 -37 184 37 16 33 17
45 7 77 -24 82 -123 118 -186 68z"/>
<path d="M4430 3201 c0 -5 6 -22 13 -39 l12 -30 44 39 44 39 -57 0 c-31 0 -56
-4 -56 -9z"/>
<path d="M525 3188 c-13 -32 -13 -33 13 -45 43 -19 61 -16 68 14 9 34 -6 57
-40 61 -22 3 -29 -2 -41 -30z"/>
</g>
</svg>
